<?xml version="1.0" encoding="UTF-8" standalone="no"?>
<svg
   width="800"
   height="800"
   viewBox="0 0 200 200"
   version="1.1"
   id="svg37"
   xmlns="http://www.w3.org/2000/svg"
   xmlns:svg="http://www.w3.org/2000/svg">
  <rect
     fill="#ffffff"
     width="200"
     height="200"
     id="rect2"
     x="-25.99999"
     y="0" />
  <defs
     id="defs29">
    <linearGradient
       id="a"
       gradientUnits="userSpaceOnUse"
       x1="88"
       y1="88"
       x2="0"
       y2="0">
      <stop
         offset="0"
         stop-color="#005092"
         id="stop4" />
      <stop
         offset="1"
         stop-color="#007cc4"
         id="stop6" />
    </linearGradient>
    <linearGradient
       id="b"
       gradientUnits="userSpaceOnUse"
       x1="75"
       y1="76"
       x2="168"
       y2="160"
       gradientTransform="matrix(-1.1510672,0,0,1.1444991,199.90476,0.38095238)">
      <stop
         offset="0"
         stop-color="#868686"
         id="stop9" />
      <stop
         offset="0.09"
         stop-color="#ababab"
         id="stop11" />
      <stop
         offset="0.18"
         stop-color="#c4c4c4"
         id="stop13" />
      <stop
         offset="0.31"
         stop-color="#d7d7d7"
         id="stop15" />
      <stop
         offset="0.44"
         stop-color="#e5e5e5"
         id="stop17" />
      <stop
         offset="0.59"
         stop-color="#f1f1f1"
         id="stop19" />
      <stop
         offset="0.75"
         stop-color="#f9f9f9"
         id="stop21" />
      <stop
         offset="1"
         stop-color="#FFFFFF"
         id="stop23" />
    </linearGradient>
    <filter
       id="c"
       x="-0.16551724"
       y="-0.16551724"
       width="1.3310345"
       height="1.3310345">
      <feGaussianBlur
         in="SourceGraphic"
         stdDeviation="12"
         id="feGaussianBlur26" />
    </filter>
  </defs>
  <polygon
     fill="url(#a)"
     points="0,174 0,0 174,0 "
     id="polygon31"
     style="fill:url(#a)"
     transform="matrix(-1.1510673,0,0,1.1423098,200.28572,0)" />
  <path
     fill="#000000"
     fill-opacity="0.5"
     filter="url(#c)"
     d="M 121.8,174 C 59.2,153.1 0,174 0,174 0,174 63.5,100.2 87,80 111.4,59.1 174,0 174,0 c 0,0 -66.1,104.4 -52.2,174 z"
     id="path33"
     transform="matrix(-1,0,0,1,174.00001,0)" />
  <path
     fill="url(#b)"
     d="m 35.647465,163.70099 c 96.114125,0 164.257305,35.82282 164.257305,35.82282 0,0 -48.34482,-75.8803 -86.21495,-113.648769 C 75.819715,48.106568 -0.38094248,0.38095238 -0.38094248,0.38095238 c 0,0 36.02840748,71.64564862 36.02840748,163.32003762 z"
     id="path35"
     style="fill:url(#b);stroke-width:1.14778" />
</svg>
